<?xml version="1.0" encoding="utf-8"?>
<!-- Generator: Adobe Illustrator 16.0.0, SVG Export Plug-In . SVG Version: 6.00 Build 0)  -->
<!DOCTYPE svg PUBLIC "-//W3C//DTD SVG 1.1//EN" "http://www.w3.org/Graphics/SVG/1.1/DTD/svg11.dtd">
<svg version="1.1" id="Layer_1" xmlns="http://www.w3.org/2000/svg" xmlns:xlink="http://www.w3.org/1999/xlink" x="0px" y="0px"
	 width="179.643px" height="97.44px" viewBox="0 0 179.643 97.44" enable-background="new 0 0 179.643 97.44" xml:space="preserve">
<circle fill="#7672B1" cx="28.893" cy="45.571" r="10.75"/>
<circle fill="#B9B7D8" cx="56.893" cy="45.571" r="10.75"/>
<circle fill="#199F7A" cx="84.893" cy="45.571" r="10.75"/>
<circle fill="#90CFBC" cx="112.893" cy="45.571" r="10.75"/>
<circle fill="#D96531" cx="140.893" cy="45.571" r="10.75"/>
<circle fill="#ECB199" cx="168.893" cy="45.571" r="10.75"/>
<circle fill="#7672B1" cx="28.893" cy="72.071" r="6.45"/>
<circle fill="#B9B7D8" cx="56.893" cy="72.071" r="6.45"/>
<circle fill="#199F7A" cx="84.893" cy="72.071" r="6.45"/>
<circle fill="#90CFBC" cx="112.893" cy="72.071" r="6.45"/>
<circle fill="#D96531" cx="140.893" cy="72.071" r="6.45"/>
<circle fill="#ECB199" cx="168.893" cy="72.071" r="6.45"/>
<circle fill="#7672B1" cx="28.91" cy="93.303" r="3.87"/>
<circle fill="#B9B7D8" cx="56.893" cy="93.571" r="3.87"/>
<circle fill="#199F7A" cx="84.893" cy="93.571" r="3.87"/>
<circle fill="#90CFBC" cx="112.893" cy="93.571" r="3.87"/>
<circle fill="#D96531" cx="140.893" cy="93.571" r="3.87"/>
<circle fill="#ECB199" cx="168.893" cy="93.571" r="3.869"/>
<g>
	<path d="M29.687,25.063h2.109v1.477h-2.109v2.426H28.07V26.54h-2.121v-1.477h2.121v-2.309h1.617V25.063z"/>
</g>
<path d="M4.078,91.651v3.305H2.76v-3.305H4.078z"/>
<path d="M4.744,82.318l0.297-0.068v-0.01L4.75,82.175L1.09,81.091v-1.053l4.977,1.692v1.025L1.09,84.448v-1.056L4.744,82.318z"/>
<path d="M4.026,75.551c0.618,0,1.124,0.19,1.519,0.571c0.396,0.38,0.593,0.885,0.593,1.514c0,0.625-0.198,1.125-0.593,1.502
	c-0.395,0.377-0.901,0.565-1.519,0.565H3.13c-0.615,0-1.121-0.188-1.518-0.564s-0.595-0.876-0.595-1.5
	c0-0.629,0.198-1.134,0.595-1.516c0.396-0.382,0.902-0.573,1.518-0.573H4.026z M3.124,76.549c-0.39,0-0.708,0.096-0.956,0.287
	c-0.247,0.191-0.371,0.459-0.371,0.803s0.123,0.608,0.369,0.793s0.565,0.277,0.957,0.277h0.902c0.396,0,0.718-0.093,0.965-0.279
	c0.248-0.186,0.371-0.45,0.371-0.794c0-0.346-0.124-0.614-0.371-0.803c-0.247-0.189-0.569-0.284-0.965-0.284H3.124z"/>
<path d="M5.301,73.746v-2.215h0.766v3.213H1.09v-0.998H5.301z"/>
<path d="M1.859,67.789v1.572h4.208v0.998H1.859v1.565H1.09v-4.136H1.859z"/>
<path d="M4.979,64.876v1.747l1.087,0.338v1.008L1.09,66.257v-1.022l4.977-1.706v1.008L4.979,64.876z M4.21,66.384v-1.268
	l-2.017,0.629v0.01L4.21,66.384z"/>
<path d="M5.431,59.24c0.187,0.15,0.352,0.379,0.494,0.685c0.142,0.307,0.213,0.705,0.213,1.195c0,0.62-0.186,1.12-0.559,1.499
	c-0.372,0.38-0.866,0.569-1.481,0.569H3.059c-0.613,0-1.106-0.182-1.48-0.547s-0.561-0.844-0.561-1.439
	c0-0.625,0.143-1.091,0.427-1.401s0.685-0.497,1.2-0.561v0.971c-0.278,0.045-0.491,0.141-0.637,0.287
	c-0.147,0.146-0.221,0.372-0.221,0.677c0,0.312,0.116,0.56,0.349,0.744c0.232,0.183,0.538,0.275,0.916,0.275h1.046
	c0.385,0,0.694-0.095,0.926-0.286c0.232-0.19,0.349-0.453,0.349-0.788c0-0.237-0.023-0.424-0.07-0.562
	c-0.047-0.138-0.107-0.245-0.18-0.32H4.221v0.882H3.53v-1.88H5.431z"/>
<path d="M3.879,55.323v2.061h1.422v-2.41h0.766v3.408H1.09v-3.401h0.769v2.403H3.11v-2.061H3.879z"/>
<path d="M2.309,43.849V41.74h1.477v2.109h2.426v1.617H3.785v2.121H2.309v-2.121H0v-1.617H2.309z"/>
<g>
	<path d="M58.513,26.833h-3.305v-1.318h3.305V26.833z"/>
</g>
<g>
	<path d="M85.687,25.063h2.109v1.477h-2.109v2.426H84.07V26.54h-2.121v-1.477h2.121v-2.309h1.617V25.063z"/>
</g>
<g>
	<path d="M114.513,26.833h-3.305v-1.318h3.305V26.833z"/>
</g>
<g>
	<path d="M141.688,25.063h2.109v1.477h-2.109v2.426h-1.617V26.54h-2.121v-1.477h2.121v-2.309h1.617V25.063z"/>
</g>
<g>
	<path d="M170.514,26.833h-3.305v-1.318h3.305V26.833z"/>
</g>
<g>
	<path d="M143.438,1.012l1.274,3.685h0.011l1.281-3.685h1.306v4.977h-0.998V4.505l0.099-2.232l-0.01-0.003l-1.347,3.719h-0.67
		l-1.34-3.705l-0.011,0.003l0.1,2.218v1.483h-0.998V1.012H143.438z"/>
	<path d="M152.273,3.948c0,0.618-0.19,1.124-0.571,1.519c-0.38,0.396-0.885,0.593-1.514,0.593c-0.625,0-1.125-0.198-1.502-0.593
		c-0.377-0.395-0.566-0.901-0.566-1.519V3.052c0-0.615,0.188-1.121,0.564-1.518s0.876-0.595,1.5-0.595
		c0.629,0,1.135,0.198,1.516,0.595c0.383,0.396,0.573,0.902,0.573,1.518V3.948z M151.275,3.045c0-0.39-0.096-0.708-0.287-0.956
		c-0.191-0.247-0.459-0.371-0.804-0.371c-0.344,0-0.607,0.123-0.793,0.369c-0.184,0.246-0.276,0.565-0.276,0.957v0.902
		c0,0.396,0.093,0.718,0.278,0.965c0.186,0.248,0.451,0.371,0.795,0.371c0.346,0,0.614-0.124,0.803-0.371
		c0.189-0.247,0.284-0.569,0.284-0.965V3.045z"/>
	<path d="M156.812,1.781h-1.572v4.208h-0.998V1.781h-1.565V1.012h4.136V1.781z"/>
	<path d="M161.365,3.948c0,0.618-0.19,1.124-0.571,1.519c-0.38,0.396-0.885,0.593-1.514,0.593c-0.625,0-1.125-0.198-1.502-0.593
		c-0.377-0.395-0.566-0.901-0.566-1.519V3.052c0-0.615,0.188-1.121,0.564-1.518s0.876-0.595,1.5-0.595
		c0.629,0,1.135,0.198,1.516,0.595c0.383,0.396,0.573,0.902,0.573,1.518V3.948z M160.367,3.045c0-0.39-0.096-0.708-0.287-0.956
		c-0.191-0.247-0.459-0.371-0.804-0.371c-0.344,0-0.607,0.123-0.793,0.369c-0.184,0.246-0.276,0.565-0.276,0.957v0.902
		c0,0.396,0.093,0.718,0.278,0.965c0.186,0.248,0.451,0.371,0.795,0.371c0.346,0,0.614-0.124,0.803-0.371
		c0.189-0.247,0.284-0.569,0.284-0.965V3.045z"/>
	<path d="M163.169,3.999v1.989h-0.998V1.012h1.955c0.574,0,1.007,0.123,1.297,0.369c0.291,0.246,0.437,0.607,0.437,1.083
		c0,0.278-0.072,0.506-0.218,0.684c-0.145,0.178-0.356,0.321-0.638,0.431v0.01c0.295,0.091,0.502,0.235,0.624,0.433
		c0.122,0.197,0.183,0.449,0.183,0.757v0.366c0,0.139,0.019,0.28,0.055,0.424c0.037,0.144,0.102,0.252,0.195,0.325v0.096h-1.021
		c-0.094-0.075-0.154-0.198-0.182-0.367c-0.027-0.17-0.041-0.331-0.041-0.484V4.785c0-0.255-0.062-0.45-0.187-0.584
		s-0.312-0.202-0.562-0.202H163.169z M163.169,3.23h0.861c0.284,0,0.495-0.058,0.631-0.174s0.203-0.293,0.203-0.53
		c0-0.235-0.063-0.417-0.191-0.548c-0.128-0.131-0.327-0.197-0.599-0.197h-0.905V3.23z"/>
	<path d="M142.2,14.388h-0.994l-2.02-3.418l-0.011,0.003v3.415h-0.998V9.412h0.998l2.021,3.415l0.01-0.003V9.412h0.994V14.388z"/>
	<path d="M146.192,12.201h-2.061v1.422h2.41v0.766h-3.408V9.412h3.4v0.769h-2.402v1.251h2.061V12.201z"/>
	<path d="M151.09,9.412v3.302c0,0.57-0.182,1.003-0.543,1.301c-0.363,0.297-0.85,0.446-1.46,0.446c-0.606,0-1.089-0.149-1.449-0.446
		c-0.36-0.298-0.54-0.731-0.54-1.301V9.412h1.002v3.302c0,0.335,0.086,0.582,0.26,0.742c0.173,0.16,0.416,0.239,0.728,0.239
		c0.319,0,0.565-0.08,0.74-0.239c0.174-0.16,0.261-0.407,0.261-0.742V9.412H151.09z"/>
	<path d="M152.959,12.399v1.989h-0.998V9.412h1.955c0.574,0,1.008,0.123,1.297,0.369c0.291,0.246,0.437,0.607,0.437,1.083
		c0,0.278-0.072,0.506-0.218,0.684c-0.145,0.178-0.356,0.321-0.637,0.431v0.01c0.294,0.091,0.502,0.235,0.623,0.433
		c0.123,0.197,0.184,0.449,0.184,0.757v0.366c0,0.139,0.018,0.28,0.055,0.424s0.102,0.252,0.195,0.325v0.096h-1.022
		c-0.093-0.075-0.153-0.198-0.181-0.367c-0.027-0.17-0.041-0.331-0.041-0.484v-0.352c0-0.255-0.062-0.45-0.188-0.584
		c-0.123-0.134-0.311-0.202-0.562-0.202H152.959z M152.959,11.63h0.861c0.285,0,0.496-0.058,0.631-0.174
		c0.136-0.116,0.203-0.293,0.203-0.53c0-0.235-0.063-0.417-0.191-0.548c-0.127-0.131-0.326-0.197-0.598-0.197h-0.906V11.63z"/>
	<path d="M160.569,12.348c0,0.618-0.191,1.124-0.571,1.519c-0.38,0.396-0.886,0.593-1.515,0.593c-0.624,0-1.125-0.198-1.502-0.593
		c-0.377-0.395-0.565-0.901-0.565-1.519v-0.896c0-0.615,0.188-1.121,0.563-1.518c0.377-0.396,0.877-0.595,1.501-0.595
		c0.629,0,1.134,0.198,1.516,0.595s0.573,0.902,0.573,1.518V12.348z M159.571,11.445c0-0.39-0.096-0.708-0.287-0.956
		c-0.191-0.247-0.459-0.371-0.804-0.371s-0.608,0.123-0.793,0.369s-0.276,0.565-0.276,0.957v0.902c0,0.396,0.092,0.718,0.278,0.965
		c0.186,0.248,0.45,0.371,0.794,0.371c0.347,0,0.615-0.124,0.804-0.371c0.188-0.247,0.284-0.569,0.284-0.965V11.445z"/>
	<path d="M165.398,14.388h-0.995l-2.02-3.418l-0.01,0.003v3.415h-0.998V9.412h0.998l2.02,3.415l0.01-0.003V9.412h0.995V14.388z"/>
	<path d="M168.987,13.089c0-0.196-0.066-0.351-0.198-0.463c-0.132-0.113-0.372-0.222-0.718-0.327
		c-0.604-0.173-1.055-0.375-1.352-0.605s-0.446-0.553-0.446-0.967s0.171-0.75,0.515-1.005c0.343-0.255,0.789-0.383,1.338-0.383
		c0.559,0,1.008,0.144,1.348,0.431c0.342,0.287,0.512,0.654,0.512,1.101h-0.998c0-0.235-0.075-0.422-0.226-0.562
		c-0.15-0.141-0.366-0.21-0.649-0.21c-0.273,0-0.482,0.059-0.625,0.176c-0.145,0.117-0.216,0.269-0.216,0.456
		c0,0.173,0.076,0.312,0.229,0.417c0.152,0.105,0.424,0.219,0.812,0.342c0.559,0.157,0.977,0.358,1.255,0.602
		s0.417,0.574,0.417,0.991c0,0.435-0.165,0.773-0.496,1.015c-0.33,0.242-0.776,0.362-1.34,0.362c-0.553,0-1.029-0.138-1.428-0.414
		c-0.399-0.276-0.599-0.676-0.599-1.2h0.998c0,0.303,0.089,0.522,0.267,0.656s0.432,0.202,0.762,0.202
		c0.278,0,0.488-0.055,0.627-0.166C168.917,13.428,168.987,13.278,168.987,13.089z"/>
</g>
<g>
	<path d="M29.53,4.689c0-0.196-0.066-0.351-0.198-0.463C29.2,4.113,28.96,4.005,28.614,3.9c-0.604-0.173-1.054-0.375-1.352-0.605
		c-0.297-0.23-0.446-0.553-0.446-0.967s0.171-0.75,0.514-1.005c0.343-0.255,0.789-0.383,1.338-0.383
		c0.558,0,1.008,0.144,1.348,0.431c0.341,0.287,0.511,0.654,0.511,1.101H29.53c0-0.235-0.075-0.422-0.226-0.562
		c-0.15-0.141-0.367-0.21-0.649-0.21c-0.273,0-0.482,0.059-0.625,0.176c-0.144,0.117-0.215,0.269-0.215,0.456
		c0,0.173,0.076,0.312,0.229,0.417s0.424,0.219,0.813,0.342c0.558,0.157,0.977,0.358,1.254,0.602s0.417,0.574,0.417,0.991
		c0,0.435-0.165,0.773-0.496,1.015s-0.777,0.362-1.34,0.362c-0.554,0-1.03-0.138-1.429-0.414s-0.598-0.676-0.598-1.2h0.998
		c0,0.303,0.089,0.522,0.267,0.656s0.432,0.202,0.762,0.202c0.278,0,0.487-0.055,0.627-0.166C29.46,5.028,29.53,4.878,29.53,4.689z"
		/>
	<path d="M34.309,3.801h-2.061v1.422h2.41v0.766H31.25V1.012h3.401v0.769h-2.403v1.251h2.061V3.801z"/>
	<path d="M39.292,5.988h-0.995l-2.02-3.418l-0.01,0.003v3.415h-0.998V1.012h0.998l2.02,3.415l0.01-0.003V1.012h0.995V5.988z"/>
	<path d="M42.881,4.689c0-0.196-0.066-0.351-0.198-0.463C42.55,4.113,42.311,4.005,41.965,3.9c-0.604-0.173-1.054-0.375-1.352-0.605
		c-0.297-0.23-0.446-0.553-0.446-0.967s0.171-0.75,0.514-1.005C41.024,1.067,41.47,0.94,42.02,0.94c0.558,0,1.008,0.144,1.348,0.431
		c0.341,0.287,0.511,0.654,0.511,1.101h-0.998c0-0.235-0.075-0.422-0.226-0.562c-0.15-0.141-0.367-0.21-0.649-0.21
		c-0.273,0-0.482,0.059-0.625,0.176c-0.144,0.117-0.215,0.269-0.215,0.456c0,0.173,0.076,0.312,0.229,0.417s0.424,0.219,0.813,0.342
		c0.558,0.157,0.977,0.358,1.254,0.602s0.417,0.574,0.417,0.991c0,0.435-0.165,0.773-0.496,1.015s-0.777,0.362-1.34,0.362
		c-0.554,0-1.03-0.138-1.429-0.414s-0.598-0.676-0.598-1.2h0.998c0,0.303,0.089,0.522,0.267,0.656s0.432,0.202,0.762,0.202
		c0.278,0,0.487-0.055,0.627-0.166C42.811,5.028,42.881,4.878,42.881,4.689z"/>
	<path d="M48.63,3.948c0,0.618-0.19,1.124-0.571,1.519c-0.38,0.396-0.885,0.593-1.514,0.593c-0.625,0-1.125-0.198-1.502-0.593
		c-0.377-0.395-0.565-0.901-0.565-1.519V3.052c0-0.615,0.188-1.121,0.564-1.518s0.876-0.595,1.5-0.595
		c0.629,0,1.134,0.198,1.516,0.595c0.382,0.396,0.573,0.902,0.573,1.518V3.948z M47.632,3.045c0-0.39-0.096-0.708-0.287-0.956
		c-0.191-0.247-0.459-0.371-0.803-0.371s-0.608,0.123-0.793,0.369s-0.277,0.565-0.277,0.957v0.902c0,0.396,0.093,0.718,0.279,0.965
		c0.186,0.248,0.45,0.371,0.794,0.371c0.346,0,0.614-0.124,0.803-0.371c0.189-0.247,0.284-0.569,0.284-0.965V3.045z"/>
	<path d="M50.435,3.999v1.989h-0.998V1.012h1.955c0.574,0,1.007,0.123,1.297,0.369c0.291,0.246,0.436,0.607,0.436,1.083
		c0,0.278-0.072,0.506-0.217,0.684c-0.145,0.178-0.357,0.321-0.637,0.431v0.01c0.294,0.091,0.502,0.235,0.624,0.433
		c0.122,0.197,0.183,0.449,0.183,0.757v0.366c0,0.139,0.018,0.28,0.055,0.424s0.102,0.252,0.195,0.325v0.096h-1.022
		c-0.093-0.075-0.154-0.198-0.181-0.367c-0.027-0.17-0.041-0.331-0.041-0.484V4.785c0-0.255-0.062-0.45-0.187-0.584
		c-0.124-0.134-0.312-0.202-0.562-0.202H50.435z M50.435,3.23h0.861c0.285,0,0.495-0.058,0.631-0.174
		c0.135-0.116,0.203-0.293,0.203-0.53c0-0.235-0.064-0.417-0.191-0.548c-0.127-0.131-0.327-0.197-0.598-0.197h-0.906V3.23z"/>
	<path d="M55.599,3.326l1.097-2.314h1.094l-1.706,3.227v1.75H55.09V4.187l-1.682-3.175h1.094L55.599,3.326z"/>
	<path d="M30.337,14.388h-0.995l-2.02-3.418l-0.01,0.003v3.415h-0.998V9.412h0.998l2.02,3.415l0.01-0.003V9.412h0.995V14.388z"/>
	<path d="M34.329,12.201h-2.061v1.422h2.41v0.766H31.27V9.412h3.401v0.769h-2.403v1.251h2.061V12.201z"/>
	<path d="M39.227,9.412v3.302c0,0.57-0.181,1.003-0.543,1.301c-0.362,0.297-0.849,0.446-1.459,0.446
		c-0.606,0-1.089-0.149-1.449-0.446c-0.36-0.298-0.54-0.731-0.54-1.301V9.412h1.001v3.302c0,0.335,0.086,0.582,0.26,0.742
		s0.416,0.239,0.728,0.239c0.319,0,0.565-0.08,0.74-0.239c0.174-0.16,0.261-0.407,0.261-0.742V9.412H39.227z"/>
	<path d="M41.097,12.399v1.989h-0.998V9.412h1.955c0.574,0,1.007,0.123,1.297,0.369c0.291,0.246,0.436,0.607,0.436,1.083
		c0,0.278-0.072,0.506-0.217,0.684c-0.145,0.178-0.357,0.321-0.637,0.431v0.01c0.294,0.091,0.502,0.235,0.624,0.433
		c0.122,0.197,0.183,0.449,0.183,0.757v0.366c0,0.139,0.018,0.28,0.055,0.424s0.102,0.252,0.195,0.325v0.096h-1.022
		c-0.093-0.075-0.154-0.198-0.181-0.367c-0.027-0.17-0.041-0.331-0.041-0.484v-0.352c0-0.255-0.062-0.45-0.187-0.584
		c-0.124-0.134-0.312-0.202-0.562-0.202H41.097z M41.097,11.63h0.861c0.285,0,0.495-0.058,0.631-0.174
		c0.135-0.116,0.203-0.293,0.203-0.53c0-0.235-0.064-0.417-0.191-0.548c-0.127-0.131-0.327-0.197-0.598-0.197h-0.906V11.63z"/>
	<path d="M48.705,12.348c0,0.618-0.19,1.124-0.571,1.519c-0.38,0.396-0.885,0.593-1.514,0.593c-0.625,0-1.125-0.198-1.502-0.593
		c-0.377-0.395-0.565-0.901-0.565-1.519v-0.896c0-0.615,0.188-1.121,0.564-1.518s0.876-0.595,1.5-0.595
		c0.629,0,1.134,0.198,1.516,0.595c0.382,0.396,0.573,0.902,0.573,1.518V12.348z M47.707,11.445c0-0.39-0.096-0.708-0.287-0.956
		c-0.191-0.247-0.459-0.371-0.803-0.371s-0.608,0.123-0.793,0.369s-0.277,0.565-0.277,0.957v0.902c0,0.396,0.093,0.718,0.279,0.965
		c0.186,0.248,0.45,0.371,0.794,0.371c0.346,0,0.614-0.124,0.803-0.371c0.189-0.247,0.284-0.569,0.284-0.965V11.445z"/>
	<path d="M53.535,14.388H52.54l-2.02-3.418l-0.01,0.003v3.415h-0.998V9.412h0.998l2.02,3.415l0.01-0.003V9.412h0.995V14.388z"/>
	<path d="M57.124,13.089c0-0.196-0.066-0.351-0.198-0.463c-0.132-0.113-0.372-0.222-0.718-0.327
		c-0.604-0.173-1.054-0.375-1.352-0.605c-0.297-0.23-0.446-0.553-0.446-0.967s0.171-0.75,0.514-1.005
		c0.343-0.255,0.789-0.383,1.338-0.383c0.558,0,1.008,0.144,1.348,0.431c0.341,0.287,0.511,0.654,0.511,1.101h-0.998
		c0-0.235-0.075-0.422-0.226-0.562c-0.15-0.141-0.367-0.21-0.649-0.21c-0.273,0-0.482,0.059-0.625,0.176
		c-0.144,0.117-0.215,0.269-0.215,0.456c0,0.173,0.076,0.312,0.229,0.417s0.424,0.219,0.813,0.342
		c0.558,0.157,0.977,0.358,1.254,0.602s0.417,0.574,0.417,0.991c0,0.435-0.165,0.773-0.496,1.015s-0.777,0.362-1.34,0.362
		c-0.554,0-1.03-0.138-1.429-0.414s-0.598-0.676-0.598-1.2h0.998c0,0.303,0.089,0.522,0.267,0.656s0.432,0.202,0.762,0.202
		c0.278,0,0.487-0.055,0.627-0.166C57.054,13.428,57.124,13.278,57.124,13.089z"/>
</g>
<g>
	<path d="M74.261,14.322h-0.998V9.345h0.998V14.322z"/>
	<path d="M79.278,14.322h-0.995l-2.02-3.418l-0.01,0.003v3.415h-0.998V9.345h0.998l2.02,3.415l0.01-0.003V9.345h0.995V14.322z"/>
	<path d="M83.937,10.114h-1.572v4.208h-0.998v-4.208h-1.565V9.345h4.136V10.114z"/>
	<path d="M87.615,12.134h-2.061v1.422h2.41v0.766h-3.408V9.345h3.401v0.769h-2.403v1.251h2.061V12.134z"/>
	<path d="M89.573,12.333v1.989h-0.998V9.345h1.955c0.574,0,1.007,0.123,1.297,0.369c0.291,0.246,0.436,0.607,0.436,1.083
		c0,0.278-0.072,0.506-0.217,0.684c-0.145,0.178-0.357,0.321-0.637,0.431v0.01c0.294,0.091,0.502,0.235,0.624,0.433
		c0.122,0.197,0.183,0.449,0.183,0.757v0.366c0,0.139,0.018,0.28,0.055,0.424s0.102,0.252,0.195,0.325v0.096h-1.022
		c-0.093-0.075-0.154-0.198-0.181-0.367c-0.027-0.17-0.041-0.331-0.041-0.484v-0.352c0-0.255-0.062-0.45-0.187-0.584
		c-0.124-0.134-0.312-0.202-0.562-0.202H89.573z M89.573,11.563h0.861c0.285,0,0.495-0.058,0.631-0.174
		c0.135-0.116,0.203-0.293,0.203-0.53c0-0.235-0.064-0.417-0.191-0.548c-0.127-0.131-0.327-0.197-0.598-0.197h-0.906V11.563z"/>
	<path d="M97.175,14.322H96.18l-2.02-3.418l-0.01,0.003v3.415h-0.998V9.345h0.998l2.02,3.415l0.01-0.003V9.345h0.995V14.322z"/>
	<path d="M101.167,12.134h-2.061v1.422h2.41v0.766h-3.408V9.345h3.401v0.769h-2.403v1.251h2.061V12.134z"/>
	<path d="M106.065,9.345v3.302c0,0.57-0.181,1.003-0.543,1.301c-0.362,0.297-0.849,0.446-1.459,0.446
		c-0.606,0-1.089-0.149-1.449-0.446c-0.36-0.298-0.54-0.731-0.54-1.301V9.345h1.001v3.302c0,0.335,0.086,0.582,0.26,0.742
		s0.416,0.239,0.728,0.239c0.319,0,0.565-0.08,0.74-0.239c0.174-0.16,0.261-0.407,0.261-0.742V9.345H106.065z"/>
	<path d="M107.935,12.333v1.989h-0.998V9.345h1.955c0.574,0,1.007,0.123,1.297,0.369c0.291,0.246,0.436,0.607,0.436,1.083
		c0,0.278-0.072,0.506-0.217,0.684c-0.145,0.178-0.357,0.321-0.637,0.431v0.01c0.294,0.091,0.502,0.235,0.624,0.433
		c0.122,0.197,0.183,0.449,0.183,0.757v0.366c0,0.139,0.018,0.28,0.055,0.424s0.102,0.252,0.195,0.325v0.096h-1.022
		c-0.093-0.075-0.154-0.198-0.181-0.367c-0.027-0.17-0.041-0.331-0.041-0.484v-0.352c0-0.255-0.062-0.45-0.187-0.584
		c-0.124-0.134-0.312-0.202-0.562-0.202H107.935z M107.935,11.563h0.861c0.285,0,0.495-0.058,0.631-0.174
		c0.135-0.116,0.203-0.293,0.203-0.53c0-0.235-0.064-0.417-0.191-0.548c-0.127-0.131-0.327-0.197-0.598-0.197h-0.906V11.563z"/>
	<path d="M115.543,12.281c0,0.618-0.19,1.124-0.571,1.519c-0.38,0.396-0.885,0.593-1.514,0.593c-0.625,0-1.125-0.198-1.502-0.593
		c-0.377-0.395-0.565-0.901-0.565-1.519v-0.896c0-0.615,0.188-1.121,0.564-1.518s0.876-0.595,1.5-0.595
		c0.629,0,1.134,0.198,1.516,0.595c0.382,0.396,0.573,0.902,0.573,1.518V12.281z M114.545,11.379c0-0.39-0.096-0.708-0.287-0.956
		c-0.191-0.247-0.459-0.371-0.803-0.371s-0.608,0.123-0.793,0.369s-0.277,0.565-0.277,0.957v0.902c0,0.396,0.093,0.718,0.279,0.965
		c0.186,0.248,0.45,0.371,0.794,0.371c0.346,0,0.614-0.124,0.803-0.371c0.189-0.247,0.284-0.569,0.284-0.965V11.379z"/>
	<path d="M120.373,14.322h-0.995l-2.02-3.418l-0.01,0.003v3.415h-0.998V9.345h0.998l2.02,3.415l0.01-0.003V9.345h0.995V14.322z"/>
	<path d="M123.961,13.023c0-0.196-0.066-0.351-0.198-0.463c-0.132-0.113-0.372-0.222-0.718-0.327
		c-0.604-0.173-1.054-0.375-1.352-0.605c-0.297-0.23-0.446-0.553-0.446-0.967s0.171-0.75,0.514-1.005
		c0.343-0.255,0.789-0.383,1.338-0.383c0.558,0,1.008,0.144,1.348,0.431c0.341,0.287,0.511,0.654,0.511,1.101h-0.998
		c0-0.235-0.075-0.422-0.226-0.562c-0.15-0.141-0.367-0.21-0.649-0.21c-0.273,0-0.482,0.059-0.625,0.176
		c-0.144,0.117-0.215,0.269-0.215,0.456c0,0.173,0.076,0.312,0.229,0.417s0.424,0.219,0.813,0.342
		c0.558,0.157,0.977,0.358,1.254,0.602s0.417,0.574,0.417,0.991c0,0.435-0.165,0.773-0.496,1.015s-0.777,0.362-1.34,0.362
		c-0.554,0-1.03-0.138-1.429-0.414s-0.598-0.676-0.598-1.2h0.998c0,0.303,0.089,0.522,0.267,0.656s0.432,0.202,0.762,0.202
		c0.278,0,0.487-0.055,0.627-0.166C123.892,13.362,123.961,13.212,123.961,13.023z"/>
</g>
</svg>
